<?xml version="1.0" encoding="utf-8"?>
<!-- Generator: Adobe Illustrator 16.0.0, SVG Export Plug-In . SVG Version: 6.00 Build 0)  -->
<!DOCTYPE svg PUBLIC "-//W3C//DTD SVG 1.1//EN" "http://www.w3.org/Graphics/SVG/1.1/DTD/svg11.dtd">
<svg version="1.1" id="Layer_1" xmlns="http://www.w3.org/2000/svg" xmlns:xlink="http://www.w3.org/1999/xlink" x="0px" y="0px"
	 width="595.279px" height="841.89px" viewBox="0 0 595.279 841.89" enable-background="new 0 0 595.279 841.89"
	 xml:space="preserve">
<path fill="#C0392B" d="M566.197,808.585v-58.068l29.083-29.084v58.068L566.197,808.585z M0,242.388l29.083-29.083h58.069
	l-29.084,29.083H0z"/>
<path fill="#E74C3C" d="M29.083,213.305h225.078L595.28,554.521v225.078L29.083,213.305z"/>
<text transform="matrix(0.7071 0.7071 -0.7071 0.7071 8298.1572 27677.1016)" fill="#FFFFFF" font-family="'ArialMT'" font-size="94.3585">POPULAR</text>
<g>
	<path fill="#FFFFFF" d="M280.127,349.333c-19.931,20.033-42.673,18.54-57.525,3.764c-15.369-15.293-14.307-37.948,3.219-55.563
		c18.385-18.479,41.897-19.141,57.44-3.677C299.148,309.664,297.31,332.063,280.127,349.333z M234.022,305.351
		c-12.371,12.434-16.718,30.274-4.889,42.044c11.917,11.856,29.562,7.59,42.707-5.62c11.512-11.571,17.495-29.673,4.974-42.13
		C264.381,287.273,246.738,292.571,234.022,305.351z"/>
	<path fill="#FFFFFF" d="M260.327,388.741l57.906-58.199l8.202,8.161l-10.645,48.002c-2.471,11.117-5.202,20.598-8.368,29.305
		l0.26,0.087c7.041-8.46,13.914-15.712,22.934-24.778l24.228-24.351l7.08,7.045l-57.903,58.199l-7.6-7.562l10.902-47.916
		c2.387-10.514,5.116-21.028,8.451-30.253l-0.345-0.171c-6.87,7.769-13.657,14.936-23.28,24.606l-24.742,24.869L260.327,388.741z"/>
	<path fill="#FFFFFF" d="M343.515,453.293c1.306,5.423,4.508,12.046,9.688,17.202c7.686,7.646,16.213,8.054,22.056,2.183
		c5.413-5.438,5.396-11.643,0.546-22.481c-6.147-12.817-7.122-23.582,1.039-31.784c9.021-9.066,23.234-8.328,34.546,2.927
		c5.958,5.929,8.9,11.605,10.031,15.65l-8.172,4.067c-0.869-2.926-3.036-8.518-8.306-13.758c-7.942-7.904-15.689-6.161-19.642-2.19
		c-5.412,5.439-4.536,11.64,0.402,22.737c6.063,13.592,6.348,23.326-2.159,31.874c-8.934,8.979-23.314,10.137-37.044-3.523
		c-5.613-5.584-10.111-13.323-11.158-18.49L343.515,453.293z"/>
	<path fill="#FFFFFF" d="M405.636,496.887l-24.258,12.292l-7.771-7.731l77.68-38.525l9.066,9.021l-38.045,77.961l-8.03-7.991
		l11.994-24.491L405.636,496.887z M430.562,510.003l10.967-22.424c2.485-5.088,5.057-9.399,7.544-13.626l-0.171-0.173
		c-4.301,2.596-8.772,5.191-13.418,7.614l-22.453,11.166L430.562,510.003z"/>
	<path fill="#FFFFFF" d="M488.758,500.206l7.514,7.475l-51.634,51.895l24.868,24.742l-6.272,6.304l-32.381-32.217L488.758,500.206z"
		/>
	<path fill="#FFFFFF" d="M528.888,601.648l-22.623-22.51l-20.876,20.981l25.212,25.088l-6.271,6.304l-32.726-32.563l57.904-58.197
		l31.431,31.271l-6.272,6.305L530.75,554.53l-18.299,18.392l22.623,22.509L528.888,601.648z"/>
</g>
</svg>
