<?xml version="1.0" encoding="utf-8"?>
<!-- Generator: Adobe Illustrator 16.0.0, SVG Export Plug-In . SVG Version: 6.00 Build 0)  -->
<!DOCTYPE svg PUBLIC "-//W3C//DTD SVG 1.1//EN" "http://www.w3.org/Graphics/SVG/1.1/DTD/svg11.dtd">
<svg version="1.1" id="Layer_1" xmlns="http://www.w3.org/2000/svg" xmlns:xlink="http://www.w3.org/1999/xlink" x="0px" y="0px"
	 width="595.279px" height="841.89px" viewBox="0 0 595.279 841.89" enable-background="new 0 0 595.279 841.89"
	 xml:space="preserve">
<path fill="#C0392B" d="M566.197,808.585v-58.068l29.083-29.084v58.068L566.197,808.585z M0,242.388l29.083-29.083h58.069
	l-29.084,29.083H0z"/>
<path fill="#E74C3C" d="M29.083,213.305h225.078L595.28,554.521v225.078L29.083,213.305z"/>
<text transform="matrix(0.7071 0.7071 -0.7071 0.7071 8298.1572 27677.1016)" fill="#FFFFFF" font-family="'ArialMT'" font-size="94.3585">POPULAR</text>
<g>
	<path fill="#FFFFFF" d="M291.266,360.11c-20.222,19.948-43.063,18.232-57.852,3.241c-15.304-15.514-14.024-38.273,3.757-55.813
		c18.652-18.398,42.29-18.843,57.765-3.154C310.756,320.42,308.698,342.916,291.266,360.11z M245.342,315.472
		c-12.551,12.38-17.089,30.27-5.31,42.211c11.865,12.027,29.64,7.907,42.975-5.248c11.679-11.521,17.864-29.659,5.396-42.296
		C276.024,297.588,258.241,302.748,245.342,315.472z"/>
	<path fill="#FFFFFF" d="M329.74,341.583l31.21,31.638l-6.363,6.277l-23.73-24.057l-19.523,19.259l21.924,22.226l-6.274,6.19
		l-21.925-22.226l-26.583,26.223l-7.48-7.582L329.74,341.583z"/>
	<path fill="#FFFFFF" d="M370.411,445.226l-22.527-22.836l-21.179,20.891l25.106,25.451l-6.364,6.277l-32.584-33.034l58.744-57.948
		l31.296,31.727l-6.362,6.275l-23.817-24.143l-18.563,18.313l22.525,22.836L370.411,445.226z"/>
	<path fill="#FFFFFF" d="M413.119,427.679c4.568,3.061,10.42,8.122,15.579,13.351c7.996,8.107,11.672,14.798,11.972,21.725
		c0.309,5.543-2.068,11.155-6.601,15.625c-7.758,7.652-17.714,7.844-25.909,3.719l-0.262,0.259
		c2.901,6.079,1.385,12.908-3.343,20.322c-6.301,10-10.59,16.981-11.654,20.437l-7.736-7.844c0.71-2.592,4.476-8.885,10.163-17.764
		c6.387-9.739,6.342-15.886-0.188-23.03l-7.05-7.147l-25.451,25.105l-7.479-7.582L413.119,427.679z M393.842,461.657l7.651,7.759
		c7.995,8.104,17.514,8.863,24.227,2.241c7.582-7.479,5.477-16.236-2.345-24.343c-3.612-3.659-6.54-5.932-8.091-6.808
		L393.842,461.657z"/>
	<path fill="#FFFFFF" d="M465.486,492.095l-17.626-17.867l6.45-6.363l42.9,43.492l-6.448,6.362l-17.712-17.953l-52.297,51.585
		l-7.564-7.669L465.486,492.095z"/>
	<path fill="#FFFFFF" d="M466.312,560.578l-24.495,12.125l-7.738-7.844l78.436-37.989l9.026,9.152l-38.971,77.994l-7.995-8.107
		l12.286-24.501L466.312,560.578z M491.241,573.993l11.233-22.432c2.545-5.091,5.17-9.4,7.711-13.626l-0.172-0.173
		c-4.347,2.565-8.864,5.133-13.557,7.523l-22.672,11.013L491.241,573.993z"/>
</g>
</svg>
